<svg width="18" height="18" viewBox="0 0 18 18" fill="none" xmlns="http://www.w3.org/2000/svg">
<mask id="mask0_20_1496" style="mask-type:alpha" maskUnits="userSpaceOnUse" x="0" y="0" width="18" height="18">
<rect width="18" height="18" fill="#D9D9D9"/>
</mask>
<g mask="url(#mask0_20_1496)">
<path d="M9.25781 2.51367C9.43199 2.53141 9.60342 2.56646 9.77051 2.61914L10.0186 2.71094L10.1592 2.77734C10.4722 2.93736 10.734 3.1596 10.9434 3.41992L12.0586 4.79004L13.7559 5.33008H13.7549C14.1869 5.46243 14.5805 5.70259 14.8906 6.05664L15.0215 6.21973L15.1299 6.38086C15.3694 6.76471 15.5 7.20362 15.5 7.6709C15.5 7.92186 15.4607 8.16555 15.3896 8.39648C15.3054 8.6704 15.1732 8.91165 15.0156 9.12109L15.0166 9.12207L13.9512 10.5537L13.9893 11.9785H13.9873C14.0066 12.6774 13.7439 13.3203 13.2344 13.8037C12.7664 14.2477 12.1675 14.5 11.5029 14.5C11.4344 14.5 11.3786 14.495 11.3682 14.4941C11.3463 14.4923 11.327 14.4907 11.3135 14.4893C11.2858 14.4862 11.2564 14.482 11.2295 14.4785C11.1744 14.4714 11.1027 14.4613 11.0176 14.4492L10.9297 14.4375L10.8447 14.4141L8.99316 13.9238L7.17285 14.4062C7.02377 14.4521 6.87809 14.4783 6.74023 14.4893C6.65858 14.4957 6.57239 14.5 6.48438 14.5C5.8198 14.5 5.22095 14.2477 4.75293 13.8037C4.24187 13.3188 3.9779 12.673 3.99902 11.9717L4.03516 10.541L2.98242 9.12109L2.9834 9.12012C2.82617 8.91092 2.69449 8.66992 2.61035 8.39648C2.53934 8.16555 2.5 7.92185 2.5 7.6709C2.50003 7.14431 2.66839 6.65969 2.95898 6.25098C3.28286 5.79562 3.72811 5.49508 4.21875 5.33398L4.23242 5.33008L5.92773 4.79004L7.04395 3.41992C7.28396 3.12151 7.59288 2.87303 7.96875 2.71094L8.2168 2.61914C8.46778 2.53999 8.72891 2.5 8.99414 2.5L9.25781 2.51367Z" fill="white" stroke="#7AA5E9" stroke-width="3"/>
</g>
</svg>
