<svg width="118" height="24" viewBox="0 0 118 24" fill="none" xmlns="http://www.w3.org/2000/svg">
<path d="M0 12C0 5.37258 5.37258 0 12 0H106C112.627 0 118 5.37258 118 12C118 18.6274 112.627 24 106 24H12C5.37259 24 0 18.6274 0 12Z" fill="#2169DB"/>
<mask id="mask0_1_1335" style="mask-type:alpha" maskUnits="userSpaceOnUse" x="8" y="6" width="12" height="12">
<rect x="8" y="6" width="12" height="12" fill="#D9D9D9"/>
</mask>
<g mask="url(#mask0_1_1335)">
<path d="M11.8125 9.2L13.2125 7.3875C13.3125 7.25417 13.4313 7.15625 13.5687 7.09375C13.7062 7.03125 13.85 7 14 7C14.15 7 14.2938 7.03125 14.4313 7.09375C14.5687 7.15625 14.6875 7.25417 14.7875 7.3875L16.1875 9.2L18.3125 9.9125C18.5292 9.97917 18.7 10.1021 18.825 10.2812C18.95 10.4604 19.0125 10.6583 19.0125 10.875C19.0125 10.975 18.9979 11.075 18.9688 11.175C18.9396 11.275 18.8917 11.3708 18.825 11.4625L17.45 13.4125L17.5 15.4625C17.5083 15.7542 17.4125 16 17.2125 16.2C17.0125 16.4 16.7792 16.5 16.5125 16.5C16.4958 16.5 16.4042 16.4875 16.2375 16.4625L14 15.8375L11.7625 16.4625C11.7208 16.4792 11.675 16.4896 11.625 16.4938C11.575 16.4979 11.5292 16.5 11.4875 16.5C11.2208 16.5 10.9875 16.4 10.7875 16.2C10.5875 16 10.4917 15.7542 10.5 15.4625L10.55 13.4L9.1875 11.4625C9.12083 11.3708 9.07292 11.275 9.04375 11.175C9.01458 11.075 9 10.975 9 10.875C9 10.6667 9.06042 10.4729 9.18125 10.2938C9.30208 10.1146 9.47083 9.9875 9.6875 9.9125L11.8125 9.2Z" fill="white"/>
</g>
<path d="M28.6827 12.916L31.7787 16H30.2067L27.1587 12.928H26.5707V16H25.3107V7.6H29.0667C29.5387 7.6 29.9627 7.716 30.3387 7.948C30.7227 8.172 31.0227 8.488 31.2387 8.896C31.4627 9.304 31.5747 9.764 31.5747 10.276C31.5747 10.78 31.4667 11.232 31.2507 11.632C31.0347 12.032 30.7427 12.348 30.3747 12.58C30.0067 12.804 29.6067 12.916 29.1747 12.916H28.6827ZM26.5707 11.764H29.0307C29.3907 11.764 29.6947 11.628 29.9427 11.356C30.1907 11.076 30.3147 10.716 30.3147 10.276C30.3147 9.836 30.1907 9.476 29.9427 9.196C29.6947 8.916 29.3907 8.776 29.0307 8.776H26.5707V11.764ZM35.6362 16.12C35.0762 16.12 34.5682 15.988 34.1122 15.724C33.6562 15.452 33.2962 15.08 33.0322 14.608C32.7762 14.128 32.6482 13.584 32.6482 12.976C32.6482 12.376 32.7762 11.84 33.0322 11.368C33.2962 10.888 33.6562 10.516 34.1122 10.252C34.5682 9.98 35.0762 9.844 35.6362 9.844C36.1722 9.844 36.6562 9.972 37.0882 10.228C37.5282 10.484 37.8722 10.836 38.1202 11.284C38.3762 11.732 38.5042 12.236 38.5042 12.796C38.5042 13.076 38.4842 13.288 38.4442 13.432H33.8362C33.8922 13.92 34.0882 14.32 34.4242 14.632C34.7602 14.936 35.1642 15.088 35.6362 15.088C35.9722 15.088 36.2682 15.012 36.5242 14.86C36.7802 14.708 36.9722 14.512 37.1002 14.272H38.3362C38.1522 14.808 37.8282 15.252 37.3642 15.604C36.9002 15.948 36.3242 16.12 35.6362 16.12ZM37.3282 12.52C37.2882 12.04 37.1122 11.644 36.8002 11.332C36.4882 11.02 36.1002 10.864 35.6362 10.864C35.1562 10.864 34.7522 11.02 34.4242 11.332C34.0962 11.644 33.9002 12.04 33.8362 12.52H37.3282ZM42.6213 16.12C42.0613 16.12 41.5533 15.988 41.0973 15.724C40.6413 15.452 40.2813 15.08 40.0173 14.608C39.7613 14.128 39.6333 13.584 39.6333 12.976C39.6333 12.376 39.7613 11.84 40.0173 11.368C40.2813 10.888 40.6413 10.516 41.0973 10.252C41.5533 9.98 42.0613 9.844 42.6213 9.844C43.3493 9.844 43.9573 10.048 44.4453 10.456C44.9333 10.864 45.2493 11.388 45.3933 12.028H44.1933C44.0893 11.692 43.9013 11.428 43.6293 11.236C43.3573 11.044 43.0213 10.948 42.6213 10.948C42.2933 10.948 41.9933 11.032 41.7213 11.2C41.4493 11.368 41.2333 11.608 41.0733 11.92C40.9133 12.224 40.8333 12.576 40.8333 12.976C40.8333 13.376 40.9133 13.732 41.0733 14.044C41.2333 14.356 41.4493 14.596 41.7213 14.764C41.9933 14.932 42.2933 15.016 42.6213 15.016C43.0213 15.016 43.3573 14.916 43.6293 14.716C43.9013 14.516 44.0893 14.24 44.1933 13.888H45.3933C45.2493 14.544 44.9333 15.08 44.4453 15.496C43.9573 15.912 43.3493 16.12 42.6213 16.12ZM49.4307 16.12C48.8707 16.12 48.3627 15.988 47.9067 15.724C47.4507 15.452 47.0907 15.08 46.8267 14.608C46.5707 14.128 46.4427 13.584 46.4427 12.976C46.4427 12.376 46.5707 11.84 46.8267 11.368C47.0907 10.888 47.4507 10.516 47.9067 10.252C48.3627 9.98 48.8707 9.844 49.4307 9.844C49.9907 9.844 50.4947 9.98 50.9427 10.252C51.3987 10.516 51.7547 10.888 52.0107 11.368C52.2747 11.84 52.4067 12.376 52.4067 12.976C52.4067 13.584 52.2747 14.128 52.0107 14.608C51.7547 15.08 51.3987 15.452 50.9427 15.724C50.4947 15.988 49.9907 16.12 49.4307 16.12ZM49.4307 15.016C49.7587 15.016 50.0587 14.932 50.3307 14.764C50.6107 14.596 50.8307 14.356 50.9907 14.044C51.1507 13.732 51.2307 13.376 51.2307 12.976C51.2307 12.576 51.1507 12.224 50.9907 11.92C50.8307 11.608 50.6107 11.368 50.3307 11.2C50.0587 11.032 49.7587 10.948 49.4307 10.948C49.1027 10.948 48.7987 11.032 48.5187 11.2C48.2467 11.368 48.0307 11.608 47.8707 11.92C47.7107 12.224 47.6307 12.576 47.6307 12.976C47.6307 13.376 47.7107 13.732 47.8707 14.044C48.0307 14.356 48.2467 14.596 48.5187 14.764C48.7987 14.932 49.1027 15.016 49.4307 15.016ZM53.8813 16V9.964H54.9013L55.0213 10.588H55.0813C55.2333 10.396 55.4453 10.224 55.7173 10.072C55.9893 9.92 56.2853 9.844 56.6053 9.844C57.0213 9.844 57.3813 9.944 57.6853 10.144C57.9973 10.344 58.2133 10.564 58.3333 10.804H58.3933C58.5533 10.556 58.8053 10.336 59.1493 10.144C59.5013 9.944 59.8933 9.844 60.3253 9.844C60.7413 9.844 61.1133 9.948 61.4413 10.156C61.7773 10.356 62.0413 10.636 62.2333 10.996C62.4253 11.356 62.5213 11.768 62.5213 12.232V16H61.3333V12.304C61.3333 11.888 61.2213 11.56 60.9973 11.32C60.7813 11.08 60.4893 10.96 60.1213 10.96C59.7613 10.96 59.4493 11.092 59.1853 11.356C58.9213 11.612 58.7893 11.928 58.7893 12.304V16H57.6133V12.304C57.6133 11.896 57.5013 11.572 57.2773 11.332C57.0533 11.084 56.7573 10.96 56.3893 10.96C56.0293 10.96 55.7173 11.092 55.4533 11.356C55.1973 11.612 55.0693 11.928 55.0693 12.304V16H53.8813ZM64.3001 16V9.964H65.3201L65.4401 10.588H65.5001C65.6521 10.396 65.8641 10.224 66.1361 10.072C66.4081 9.92 66.7041 9.844 67.0241 9.844C67.4401 9.844 67.8001 9.944 68.1041 10.144C68.4161 10.344 68.6321 10.564 68.7521 10.804H68.8121C68.9721 10.556 69.2241 10.336 69.5681 10.144C69.9201 9.944 70.3121 9.844 70.7441 9.844C71.1601 9.844 71.5321 9.948 71.8601 10.156C72.1961 10.356 72.4601 10.636 72.6521 10.996C72.8441 11.356 72.9401 11.768 72.9401 12.232V16H71.7521V12.304C71.7521 11.888 71.6401 11.56 71.4161 11.32C71.2001 11.08 70.9081 10.96 70.5401 10.96C70.1801 10.96 69.8681 11.092 69.6041 11.356C69.3401 11.612 69.2081 11.928 69.2081 12.304V16H68.0321V12.304C68.0321 11.896 67.9201 11.572 67.6961 11.332C67.4721 11.084 67.1761 10.96 66.8081 10.96C66.4481 10.96 66.1361 11.092 65.8721 11.356C65.6161 11.612 65.4881 11.928 65.4881 12.304V16H64.3001ZM77.3588 16.12C76.7988 16.12 76.2908 15.988 75.8348 15.724C75.3788 15.452 75.0188 15.08 74.7548 14.608C74.4988 14.128 74.3708 13.584 74.3708 12.976C74.3708 12.376 74.4988 11.84 74.7548 11.368C75.0188 10.888 75.3788 10.516 75.8348 10.252C76.2908 9.98 76.7988 9.844 77.3588 9.844C77.8948 9.844 78.3788 9.972 78.8108 10.228C79.2508 10.484 79.5948 10.836 79.8428 11.284C80.0988 11.732 80.2268 12.236 80.2268 12.796C80.2268 13.076 80.2068 13.288 80.1668 13.432H75.5588C75.6148 13.92 75.8108 14.32 76.1468 14.632C76.4828 14.936 76.8868 15.088 77.3588 15.088C77.6948 15.088 77.9908 15.012 78.2468 14.86C78.5028 14.708 78.6948 14.512 78.8228 14.272H80.0588C79.8748 14.808 79.5508 15.252 79.0868 15.604C78.6228 15.948 78.0468 16.12 77.3588 16.12ZM79.0508 12.52C79.0108 12.04 78.8348 11.644 78.5228 11.332C78.2108 11.02 77.8228 10.864 77.3588 10.864C76.8788 10.864 76.4748 11.02 76.1468 11.332C75.8188 11.644 75.6228 12.04 75.5588 12.52H79.0508ZM81.704 16V9.964H82.724L82.844 10.588H82.904C83.056 10.396 83.288 10.224 83.6 10.072C83.912 9.92 84.272 9.844 84.68 9.844C85.144 9.844 85.556 9.952 85.916 10.168C86.284 10.376 86.568 10.672 86.768 11.056C86.976 11.44 87.08 11.88 87.08 12.376V16H85.892V12.472C85.892 12.04 85.752 11.68 85.472 11.392C85.192 11.104 84.844 10.96 84.428 10.96C84.148 10.96 83.888 11.028 83.648 11.164C83.416 11.3 83.232 11.484 83.096 11.716C82.96 11.948 82.892 12.2 82.892 12.472V16H81.704ZM91.3129 16.12C90.7929 16.12 90.3209 15.988 89.8969 15.724C89.4729 15.46 89.1369 15.088 88.8889 14.608C88.6409 14.128 88.5169 13.584 88.5169 12.976C88.5169 12.368 88.6409 11.828 88.8889 11.356C89.1369 10.876 89.4729 10.504 89.8969 10.24C90.3209 9.976 90.7929 9.844 91.3129 9.844C92.0729 9.844 92.6809 10.132 93.1369 10.708H93.1969V7.6H94.3849V16H93.3649L93.2449 15.232H93.1849C92.7209 15.824 92.0969 16.12 91.3129 16.12ZM91.4569 15.016C91.7689 15.016 92.0569 14.932 92.3209 14.764C92.5929 14.596 92.8049 14.356 92.9569 14.044C93.1169 13.732 93.1969 13.376 93.1969 12.976C93.1969 12.576 93.1169 12.224 92.9569 11.92C92.8049 11.608 92.5929 11.368 92.3209 11.2C92.0569 11.032 91.7689 10.948 91.4569 10.948C91.1369 10.948 90.8449 11.032 90.5809 11.2C90.3169 11.368 90.1049 11.608 89.9449 11.92C89.7929 12.224 89.7169 12.576 89.7169 12.976C89.7169 13.384 89.7929 13.744 89.9449 14.056C90.1049 14.36 90.3169 14.596 90.5809 14.764C90.8449 14.932 91.1369 15.016 91.4569 15.016ZM98.8885 16.12C98.3285 16.12 97.8205 15.988 97.3645 15.724C96.9085 15.452 96.5485 15.08 96.2845 14.608C96.0285 14.128 95.9005 13.584 95.9005 12.976C95.9005 12.376 96.0285 11.84 96.2845 11.368C96.5485 10.888 96.9085 10.516 97.3645 10.252C97.8205 9.98 98.3285 9.844 98.8885 9.844C99.4245 9.844 99.9085 9.972 100.341 10.228C100.781 10.484 101.125 10.836 101.373 11.284C101.629 11.732 101.757 12.236 101.757 12.796C101.757 13.076 101.737 13.288 101.697 13.432H97.0885C97.1445 13.92 97.3405 14.32 97.6765 14.632C98.0125 14.936 98.4165 15.088 98.8885 15.088C99.2245 15.088 99.5205 15.012 99.7765 14.86C100.033 14.708 100.225 14.512 100.353 14.272H101.589C101.405 14.808 101.081 15.252 100.617 15.604C100.153 15.948 99.5765 16.12 98.8885 16.12ZM100.581 12.52C100.541 12.04 100.365 11.644 100.053 11.332C99.7405 11.02 99.3525 10.864 98.8885 10.864C98.4085 10.864 98.0045 11.02 97.6765 11.332C97.3485 11.644 97.1525 12.04 97.0885 12.52H100.581ZM105.682 16.12C105.162 16.12 104.69 15.988 104.266 15.724C103.842 15.46 103.506 15.088 103.258 14.608C103.01 14.128 102.886 13.584 102.886 12.976C102.886 12.368 103.01 11.828 103.258 11.356C103.506 10.876 103.842 10.504 104.266 10.24C104.69 9.976 105.162 9.844 105.682 9.844C106.442 9.844 107.05 10.132 107.506 10.708H107.566V7.6H108.754V16H107.734L107.614 15.232H107.554C107.09 15.824 106.466 16.12 105.682 16.12ZM105.826 15.016C106.138 15.016 106.426 14.932 106.69 14.764C106.962 14.596 107.174 14.356 107.326 14.044C107.486 13.732 107.566 13.376 107.566 12.976C107.566 12.576 107.486 12.224 107.326 11.92C107.174 11.608 106.962 11.368 106.69 11.2C106.426 11.032 106.138 10.948 105.826 10.948C105.506 10.948 105.214 11.032 104.95 11.2C104.686 11.368 104.474 11.608 104.314 11.92C104.162 12.224 104.086 12.576 104.086 12.976C104.086 13.384 104.162 13.744 104.314 14.056C104.474 14.36 104.686 14.596 104.95 14.764C105.214 14.932 105.506 15.016 105.826 15.016Z" fill="white"/>
</svg>
