<svg width="118" height="30" viewBox="0 0 118 30" fill="none" xmlns="http://www.w3.org/2000/svg">
<path d="M33.0374 1.56824C33.8281 0.720374 35.1719 0.720375 35.9626 1.56825L40.4558 6.3859C41.6483 7.66453 40.7416 9.75 38.9932 9.75L30.0068 9.75C28.2584 9.75 27.3517 7.66452 28.5442 6.3859L33.0374 1.56824Z" fill="#2169DB"/>
<path d="M0 18C0 11.3726 5.37258 6 12 6H106C112.627 6 118 11.3726 118 18C118 24.6274 112.627 30 106 30H12C5.37259 30 0 24.6274 0 18Z" fill="#2169DB"/>
<mask id="mask0_20_1022" style="mask-type:alpha" maskUnits="userSpaceOnUse" x="8" y="12" width="12" height="12">
<rect x="8" y="12" width="12" height="12" fill="#D9D9D9"/>
</mask>
<g mask="url(#mask0_20_1022)">
<path d="M11.8125 15.2L13.2125 13.3875C13.3125 13.2542 13.4313 13.1562 13.5687 13.0938C13.7062 13.0312 13.85 13 14 13C14.15 13 14.2938 13.0312 14.4313 13.0938C14.5687 13.1562 14.6875 13.2542 14.7875 13.3875L16.1875 15.2L18.3125 15.9125C18.5292 15.9792 18.7 16.1021 18.825 16.2812C18.95 16.4604 19.0125 16.6583 19.0125 16.875C19.0125 16.975 18.9979 17.075 18.9688 17.175C18.9396 17.275 18.8917 17.3708 18.825 17.4625L17.45 19.4125L17.5 21.4625C17.5083 21.7542 17.4125 22 17.2125 22.2C17.0125 22.4 16.7792 22.5 16.5125 22.5C16.4958 22.5 16.4042 22.4875 16.2375 22.4625L14 21.8375L11.7625 22.4625C11.7208 22.4792 11.675 22.4896 11.625 22.4938C11.575 22.4979 11.5292 22.5 11.4875 22.5C11.2208 22.5 10.9875 22.4 10.7875 22.2C10.5875 22 10.4917 21.7542 10.5 21.4625L10.55 19.4L9.1875 17.4625C9.12083 17.3708 9.07292 17.275 9.04375 17.175C9.01458 17.075 9 16.975 9 16.875C9 16.6667 9.06042 16.4729 9.18125 16.2938C9.30208 16.1146 9.47083 15.9875 9.6875 15.9125L11.8125 15.2Z" fill="white"/>
</g>
<path d="M28.6827 18.916L31.7787 22H30.2067L27.1587 18.928H26.5707V22H25.3107V13.6H29.0667C29.5387 13.6 29.9627 13.716 30.3387 13.948C30.7227 14.172 31.0227 14.488 31.2387 14.896C31.4627 15.304 31.5747 15.764 31.5747 16.276C31.5747 16.78 31.4667 17.232 31.2507 17.632C31.0347 18.032 30.7427 18.348 30.3747 18.58C30.0067 18.804 29.6067 18.916 29.1747 18.916H28.6827ZM26.5707 17.764H29.0307C29.3907 17.764 29.6947 17.628 29.9427 17.356C30.1907 17.076 30.3147 16.716 30.3147 16.276C30.3147 15.836 30.1907 15.476 29.9427 15.196C29.6947 14.916 29.3907 14.776 29.0307 14.776H26.5707V17.764ZM35.6362 22.12C35.0762 22.12 34.5682 21.988 34.1122 21.724C33.6562 21.452 33.2962 21.08 33.0322 20.608C32.7762 20.128 32.6482 19.584 32.6482 18.976C32.6482 18.376 32.7762 17.84 33.0322 17.368C33.2962 16.888 33.6562 16.516 34.1122 16.252C34.5682 15.98 35.0762 15.844 35.6362 15.844C36.1722 15.844 36.6562 15.972 37.0882 16.228C37.5282 16.484 37.8722 16.836 38.1202 17.284C38.3762 17.732 38.5042 18.236 38.5042 18.796C38.5042 19.076 38.4842 19.288 38.4442 19.432H33.8362C33.8922 19.92 34.0882 20.32 34.4242 20.632C34.7602 20.936 35.1642 21.088 35.6362 21.088C35.9722 21.088 36.2682 21.012 36.5242 20.86C36.7802 20.708 36.9722 20.512 37.1002 20.272H38.3362C38.1522 20.808 37.8282 21.252 37.3642 21.604C36.9002 21.948 36.3242 22.12 35.6362 22.12ZM37.3282 18.52C37.2882 18.04 37.1122 17.644 36.8002 17.332C36.4882 17.02 36.1002 16.864 35.6362 16.864C35.1562 16.864 34.7522 17.02 34.4242 17.332C34.0962 17.644 33.9002 18.04 33.8362 18.52H37.3282ZM42.6213 22.12C42.0613 22.12 41.5533 21.988 41.0973 21.724C40.6413 21.452 40.2813 21.08 40.0173 20.608C39.7613 20.128 39.6333 19.584 39.6333 18.976C39.6333 18.376 39.7613 17.84 40.0173 17.368C40.2813 16.888 40.6413 16.516 41.0973 16.252C41.5533 15.98 42.0613 15.844 42.6213 15.844C43.3493 15.844 43.9573 16.048 44.4453 16.456C44.9333 16.864 45.2493 17.388 45.3933 18.028H44.1933C44.0893 17.692 43.9013 17.428 43.6293 17.236C43.3573 17.044 43.0213 16.948 42.6213 16.948C42.2933 16.948 41.9933 17.032 41.7213 17.2C41.4493 17.368 41.2333 17.608 41.0733 17.92C40.9133 18.224 40.8333 18.576 40.8333 18.976C40.8333 19.376 40.9133 19.732 41.0733 20.044C41.2333 20.356 41.4493 20.596 41.7213 20.764C41.9933 20.932 42.2933 21.016 42.6213 21.016C43.0213 21.016 43.3573 20.916 43.6293 20.716C43.9013 20.516 44.0893 20.24 44.1933 19.888H45.3933C45.2493 20.544 44.9333 21.08 44.4453 21.496C43.9573 21.912 43.3493 22.12 42.6213 22.12ZM49.4307 22.12C48.8707 22.12 48.3627 21.988 47.9067 21.724C47.4507 21.452 47.0907 21.08 46.8267 20.608C46.5707 20.128 46.4427 19.584 46.4427 18.976C46.4427 18.376 46.5707 17.84 46.8267 17.368C47.0907 16.888 47.4507 16.516 47.9067 16.252C48.3627 15.98 48.8707 15.844 49.4307 15.844C49.9907 15.844 50.4947 15.98 50.9427 16.252C51.3987 16.516 51.7547 16.888 52.0107 17.368C52.2747 17.84 52.4067 18.376 52.4067 18.976C52.4067 19.584 52.2747 20.128 52.0107 20.608C51.7547 21.08 51.3987 21.452 50.9427 21.724C50.4947 21.988 49.9907 22.12 49.4307 22.12ZM49.4307 21.016C49.7587 21.016 50.0587 20.932 50.3307 20.764C50.6107 20.596 50.8307 20.356 50.9907 20.044C51.1507 19.732 51.2307 19.376 51.2307 18.976C51.2307 18.576 51.1507 18.224 50.9907 17.92C50.8307 17.608 50.6107 17.368 50.3307 17.2C50.0587 17.032 49.7587 16.948 49.4307 16.948C49.1027 16.948 48.7987 17.032 48.5187 17.2C48.2467 17.368 48.0307 17.608 47.8707 17.92C47.7107 18.224 47.6307 18.576 47.6307 18.976C47.6307 19.376 47.7107 19.732 47.8707 20.044C48.0307 20.356 48.2467 20.596 48.5187 20.764C48.7987 20.932 49.1027 21.016 49.4307 21.016ZM53.8813 22V15.964H54.9013L55.0213 16.588H55.0813C55.2333 16.396 55.4453 16.224 55.7173 16.072C55.9893 15.92 56.2853 15.844 56.6053 15.844C57.0213 15.844 57.3813 15.944 57.6853 16.144C57.9973 16.344 58.2133 16.564 58.3333 16.804H58.3933C58.5533 16.556 58.8053 16.336 59.1493 16.144C59.5013 15.944 59.8933 15.844 60.3253 15.844C60.7413 15.844 61.1133 15.948 61.4413 16.156C61.7773 16.356 62.0413 16.636 62.2333 16.996C62.4253 17.356 62.5213 17.768 62.5213 18.232V22H61.3333V18.304C61.3333 17.888 61.2213 17.56 60.9973 17.32C60.7813 17.08 60.4893 16.96 60.1213 16.96C59.7613 16.96 59.4493 17.092 59.1853 17.356C58.9213 17.612 58.7893 17.928 58.7893 18.304V22H57.6133V18.304C57.6133 17.896 57.5013 17.572 57.2773 17.332C57.0533 17.084 56.7573 16.96 56.3893 16.96C56.0293 16.96 55.7173 17.092 55.4533 17.356C55.1973 17.612 55.0693 17.928 55.0693 18.304V22H53.8813ZM64.3001 22V15.964H65.3201L65.4401 16.588H65.5001C65.6521 16.396 65.8641 16.224 66.1361 16.072C66.4081 15.92 66.7041 15.844 67.0241 15.844C67.4401 15.844 67.8001 15.944 68.1041 16.144C68.4161 16.344 68.6321 16.564 68.7521 16.804H68.8121C68.9721 16.556 69.2241 16.336 69.5681 16.144C69.9201 15.944 70.3121 15.844 70.7441 15.844C71.1601 15.844 71.5321 15.948 71.8601 16.156C72.1961 16.356 72.4601 16.636 72.6521 16.996C72.8441 17.356 72.9401 17.768 72.9401 18.232V22H71.7521V18.304C71.7521 17.888 71.6401 17.56 71.4161 17.32C71.2001 17.08 70.9081 16.96 70.5401 16.96C70.1801 16.96 69.8681 17.092 69.6041 17.356C69.3401 17.612 69.2081 17.928 69.2081 18.304V22H68.0321V18.304C68.0321 17.896 67.9201 17.572 67.6961 17.332C67.4721 17.084 67.1761 16.96 66.8081 16.96C66.4481 16.96 66.1361 17.092 65.8721 17.356C65.6161 17.612 65.4881 17.928 65.4881 18.304V22H64.3001ZM77.3588 22.12C76.7988 22.12 76.2908 21.988 75.8348 21.724C75.3788 21.452 75.0188 21.08 74.7548 20.608C74.4988 20.128 74.3708 19.584 74.3708 18.976C74.3708 18.376 74.4988 17.84 74.7548 17.368C75.0188 16.888 75.3788 16.516 75.8348 16.252C76.2908 15.98 76.7988 15.844 77.3588 15.844C77.8948 15.844 78.3788 15.972 78.8108 16.228C79.2508 16.484 79.5948 16.836 79.8428 17.284C80.0988 17.732 80.2268 18.236 80.2268 18.796C80.2268 19.076 80.2068 19.288 80.1668 19.432H75.5588C75.6148 19.92 75.8108 20.32 76.1468 20.632C76.4828 20.936 76.8868 21.088 77.3588 21.088C77.6948 21.088 77.9908 21.012 78.2468 20.86C78.5028 20.708 78.6948 20.512 78.8228 20.272H80.0588C79.8748 20.808 79.5508 21.252 79.0868 21.604C78.6228 21.948 78.0468 22.12 77.3588 22.12ZM79.0508 18.52C79.0108 18.04 78.8348 17.644 78.5228 17.332C78.2108 17.02 77.8228 16.864 77.3588 16.864C76.8788 16.864 76.4748 17.02 76.1468 17.332C75.8188 17.644 75.6228 18.04 75.5588 18.52H79.0508ZM81.704 22V15.964H82.724L82.844 16.588H82.904C83.056 16.396 83.288 16.224 83.6 16.072C83.912 15.92 84.272 15.844 84.68 15.844C85.144 15.844 85.556 15.952 85.916 16.168C86.284 16.376 86.568 16.672 86.768 17.056C86.976 17.44 87.08 17.88 87.08 18.376V22H85.892V18.472C85.892 18.04 85.752 17.68 85.472 17.392C85.192 17.104 84.844 16.96 84.428 16.96C84.148 16.96 83.888 17.028 83.648 17.164C83.416 17.3 83.232 17.484 83.096 17.716C82.96 17.948 82.892 18.2 82.892 18.472V22H81.704ZM91.3129 22.12C90.7929 22.12 90.3209 21.988 89.8969 21.724C89.4729 21.46 89.1369 21.088 88.8889 20.608C88.6409 20.128 88.5169 19.584 88.5169 18.976C88.5169 18.368 88.6409 17.828 88.8889 17.356C89.1369 16.876 89.4729 16.504 89.8969 16.24C90.3209 15.976 90.7929 15.844 91.3129 15.844C92.0729 15.844 92.6809 16.132 93.1369 16.708H93.1969V13.6H94.3849V22H93.3649L93.2449 21.232H93.1849C92.7209 21.824 92.0969 22.12 91.3129 22.12ZM91.4569 21.016C91.7689 21.016 92.0569 20.932 92.3209 20.764C92.5929 20.596 92.8049 20.356 92.9569 20.044C93.1169 19.732 93.1969 19.376 93.1969 18.976C93.1969 18.576 93.1169 18.224 92.9569 17.92C92.8049 17.608 92.5929 17.368 92.3209 17.2C92.0569 17.032 91.7689 16.948 91.4569 16.948C91.1369 16.948 90.8449 17.032 90.5809 17.2C90.3169 17.368 90.1049 17.608 89.9449 17.92C89.7929 18.224 89.7169 18.576 89.7169 18.976C89.7169 19.384 89.7929 19.744 89.9449 20.056C90.1049 20.36 90.3169 20.596 90.5809 20.764C90.8449 20.932 91.1369 21.016 91.4569 21.016ZM98.8885 22.12C98.3285 22.12 97.8205 21.988 97.3645 21.724C96.9085 21.452 96.5485 21.08 96.2845 20.608C96.0285 20.128 95.9005 19.584 95.9005 18.976C95.9005 18.376 96.0285 17.84 96.2845 17.368C96.5485 16.888 96.9085 16.516 97.3645 16.252C97.8205 15.98 98.3285 15.844 98.8885 15.844C99.4245 15.844 99.9085 15.972 100.341 16.228C100.781 16.484 101.125 16.836 101.373 17.284C101.629 17.732 101.757 18.236 101.757 18.796C101.757 19.076 101.737 19.288 101.697 19.432H97.0885C97.1445 19.92 97.3405 20.32 97.6765 20.632C98.0125 20.936 98.4165 21.088 98.8885 21.088C99.2245 21.088 99.5205 21.012 99.7765 20.86C100.033 20.708 100.225 20.512 100.353 20.272H101.589C101.405 20.808 101.081 21.252 100.617 21.604C100.153 21.948 99.5765 22.12 98.8885 22.12ZM100.581 18.52C100.541 18.04 100.365 17.644 100.053 17.332C99.7405 17.02 99.3525 16.864 98.8885 16.864C98.4085 16.864 98.0045 17.02 97.6765 17.332C97.3485 17.644 97.1525 18.04 97.0885 18.52H100.581ZM105.682 22.12C105.162 22.12 104.69 21.988 104.266 21.724C103.842 21.46 103.506 21.088 103.258 20.608C103.01 20.128 102.886 19.584 102.886 18.976C102.886 18.368 103.01 17.828 103.258 17.356C103.506 16.876 103.842 16.504 104.266 16.24C104.69 15.976 105.162 15.844 105.682 15.844C106.442 15.844 107.05 16.132 107.506 16.708H107.566V13.6H108.754V22H107.734L107.614 21.232H107.554C107.09 21.824 106.466 22.12 105.682 22.12ZM105.826 21.016C106.138 21.016 106.426 20.932 106.69 20.764C106.962 20.596 107.174 20.356 107.326 20.044C107.486 19.732 107.566 19.376 107.566 18.976C107.566 18.576 107.486 18.224 107.326 17.92C107.174 17.608 106.962 17.368 106.69 17.2C106.426 17.032 106.138 16.948 105.826 16.948C105.506 16.948 105.214 17.032 104.95 17.2C104.686 17.368 104.474 17.608 104.314 17.92C104.162 18.224 104.086 18.576 104.086 18.976C104.086 19.384 104.162 19.744 104.314 20.056C104.474 20.36 104.686 20.596 104.95 20.764C105.214 20.932 105.506 21.016 105.826 21.016Z" fill="white"/>
</svg>
