<svg width="60" height="60" viewBox="0 0 60 60" fill="none" xmlns="http://www.w3.org/2000/svg">
<path d="M60 30C60 46.5685 46.5685 60 30 60C13.4315 60 0 46.5685 0 30C0 13.4315 13.4315 0 30 0C46.5685 0 60 13.4315 60 30Z" fill="#D3E1F8"/>
<path d="M18 23.3334V18L23.3334 20.6667L18 23.3334ZM38 23.3334V18L43.3334 20.6667L38 23.3334ZM28.6667 22V16.6667L34 19.3334L28.6667 22ZM26 43.1667C24.8445 43.0556 23.7111 42.8889 22.6 42.6667C21.4889 42.4445 20.4942 42.1725 19.616 41.8507C18.7378 41.5289 18.0267 41.1565 17.4827 40.7334C16.9387 40.3102 16.6667 39.8436 16.6667 39.3334V27.3334C16.6667 26.7778 17.0169 26.2614 17.7174 25.784C18.4178 25.3067 19.3676 24.8845 20.5667 24.5174C21.7658 24.1502 23.1769 23.8614 24.8 23.6507C26.4231 23.44 28.1565 23.3342 30 23.3334C31.8436 23.3325 33.5769 23.4382 35.2 23.6507C36.8231 23.8631 38.2342 24.152 39.4334 24.5174C40.6325 24.8827 41.5827 25.3049 42.284 25.784C42.9854 26.2631 43.3351 26.7796 43.3334 27.3334V39.3334C43.3334 39.8445 43.0614 40.3111 42.5174 40.7334C41.9734 41.1556 41.2622 41.528 40.384 41.8507C39.5058 42.1734 38.5111 42.4454 37.4 42.6667C36.2889 42.888 35.1556 43.0547 34 43.1667V36.6667H26V43.1667ZM30 28.6667C32.1556 28.6667 34.0169 28.5387 35.584 28.2827C37.1511 28.0267 38.4009 27.7325 39.3334 27.4C39.3334 27.2889 38.4889 27.028 36.8 26.6174C35.1111 26.2067 32.8445 26.0009 30 26C27.1556 25.9991 24.8889 26.2049 23.2 26.6174C21.5111 27.0298 20.6667 27.2907 20.6667 27.4C21.6 27.7334 22.8498 28.028 24.416 28.284C25.9822 28.54 27.8436 28.6676 30 28.6667Z" fill="#2169DB"/>
</svg>
