<svg width="18" height="18" viewBox="0 0 18 18" fill="none" xmlns="http://www.w3.org/2000/svg">
<mask id="mask0_20_1019" style="mask-type:alpha" maskUnits="userSpaceOnUse" x="0" y="0" width="18" height="18">
<rect width="18" height="18" fill="#D9D9D9"/>
</mask>
<g mask="url(#mask0_20_1019)">
<path d="M5.71875 4.8L7.81875 2.08125C7.96875 1.88125 8.14687 1.73438 8.35312 1.64062C8.55937 1.54688 8.775 1.5 9 1.5C9.225 1.5 9.44063 1.54688 9.64688 1.64062C9.85313 1.73438 10.0312 1.88125 10.1812 2.08125L12.2812 4.8L15.4688 5.86875C15.7937 5.96875 16.05 6.15312 16.2375 6.42188C16.425 6.69063 16.5187 6.9875 16.5187 7.3125C16.5187 7.4625 16.4969 7.6125 16.4531 7.7625C16.4094 7.9125 16.3375 8.05625 16.2375 8.19375L14.175 11.1187L14.25 14.1938C14.2625 14.6313 14.1188 15 13.8188 15.3C13.5188 15.6 13.1688 15.75 12.7688 15.75C12.7438 15.75 12.6063 15.7313 12.3563 15.6938L9 14.7563L5.64375 15.6938C5.58125 15.7188 5.5125 15.7344 5.4375 15.7406C5.3625 15.7469 5.29375 15.75 5.23125 15.75C4.83125 15.75 4.48125 15.6 4.18125 15.3C3.88125 15 3.7375 14.6313 3.75 14.1938L3.825 11.1L1.78125 8.19375C1.68125 8.05625 1.60938 7.9125 1.56562 7.7625C1.52187 7.6125 1.5 7.4625 1.5 7.3125C1.5 7 1.59063 6.70937 1.77188 6.44063C1.95312 6.17188 2.20625 5.98125 2.53125 5.86875L5.71875 4.8Z" fill="#2169DB"/>
</g>
</svg>
