<svg width="24" height="24" viewBox="0 0 24 24" fill="none" xmlns="http://www.w3.org/2000/svg">
<mask id="mask0_2078_283" style="mask-type:alpha" maskUnits="userSpaceOnUse" x="0" y="0" width="24" height="24">
<rect width="24" height="24" fill="#D9D9D9"/>
</mask>
<g mask="url(#mask0_2078_283)">
<path d="M12 3C12.1561 3 12.3024 3.03145 12.4482 3.09766C12.5551 3.14625 12.6654 3.22836 12.7754 3.375L12.7832 3.38672L15.584 7.01172L15.7695 7.25195L16.0566 7.34766L20.3066 8.77344L20.3193 8.77734L20.3311 8.78125C20.5597 8.85165 20.7129 8.96675 20.8301 9.13477C20.964 9.32671 21.0254 9.52317 21.0254 9.75C21.0254 9.85135 21.0105 9.95747 20.9775 10.0703C20.9542 10.1502 20.9122 10.2387 20.8408 10.3369L20.833 10.3486L18.083 14.249L17.8926 14.5186L17.9004 14.8496L18 18.9492V18.9531C18.0091 19.2713 17.9164 19.4947 17.7178 19.6934C17.5035 19.9075 17.2963 19.9905 17.0605 19.998C17.0445 19.996 17.0238 19.9937 16.998 19.9902C16.9238 19.9801 16.8195 19.9654 16.6846 19.9453L12.2686 18.7119L12 18.6367L11.7314 18.7119L7.25586 19.9619L7.2041 19.9766L7.16504 19.9912C7.08818 19.9976 7.02491 20 6.97461 20C6.7241 19.9999 6.50709 19.9181 6.28223 19.6934C6.08361 19.4947 5.99091 19.2713 6 18.9531V18.9492L6.09961 14.8242L6.10742 14.4941L5.91797 14.2246L3.19336 10.3496L3.18848 10.3428L3.18359 10.3369L3.09766 10.1963C3.07556 10.1521 3.05949 10.1101 3.04785 10.0703C3.01494 9.95747 3 9.85136 3 9.75C3 9.54031 3.05674 9.34616 3.19141 9.14648C3.30293 8.98114 3.45648 8.85717 3.69336 8.77344L7.94336 7.34766L8.23047 7.25195L8.41602 7.01172L11.2168 3.38672L11.2246 3.375C11.3346 3.22836 11.4449 3.14625 11.5518 3.09766C11.6976 3.03145 11.8439 3 12 3Z" fill="#2169DB" stroke="#7AA5E9" stroke-width="2"/>
</g>
</svg>
