<svg width="592" height="44" viewBox="0 0 592 44" fill="none" xmlns="http://www.w3.org/2000/svg">
<path d="M200 44L22 44C9.84973 44 0 34.1503 0 22C0 9.84974 9.84973 0 22 0L200 0V44Z" fill="white"/>
<path d="M32 22C32 17.5817 35.5817 14 40 14H180C184.418 14 188 17.5817 188 22C188 26.4183 184.418 30 180 30H40C35.5817 30 32 26.4183 32 22Z" fill="url(#paint0_linear_20_1043)"/>
<path d="M12 22C12 13.1634 19.1634 6 28 6C36.8366 6 44 13.1634 44 22C44 30.8366 36.8366 38 28 38C19.1634 38 12 30.8366 12 22Z" fill="#37A86E"/>
<path fill-rule="evenodd" clip-rule="evenodd" d="M21.4156 20.8361L27.3415 15.3933C27.7052 15.0593 28.2948 15.0593 28.6584 15.3933L34.5844 20.8361C34.948 21.17 34.948 21.7116 34.5844 22.0456C34.2207 22.3795 33.6311 22.3795 33.2675 22.0456L28.9311 18.0628L28.9311 28.0019C28.9311 28.4742 28.5142 28.8571 28 28.8571C27.4857 28.8571 27.0688 28.4742 27.0688 28.0019L27.0688 18.0628L22.7324 22.0456C22.3688 22.3795 21.7792 22.3795 21.4156 22.0456C21.0519 21.7116 21.0519 21.17 21.4156 20.8361Z" fill="white"/>
<path d="M188 0H570C582.15 0 592 9.84974 592 22V22C592 34.1503 582.15 44 570 44H188V0Z" fill="white"/>
<path d="M548 22C548 13.1634 555.163 6 564 6C572.837 6 580 13.1634 580 22C580 30.8366 572.837 38 564 38C555.163 38 548 30.8366 548 22Z" fill="#212121"/>
<path fill-rule="evenodd" clip-rule="evenodd" d="M570.584 23.1639L564.658 28.6067C564.295 28.9407 563.705 28.9407 563.342 28.6067L557.416 23.1639C557.052 22.83 557.052 22.2884 557.416 21.9544C557.779 21.6205 558.369 21.6205 558.733 21.9544L563.069 25.9372V15.9981C563.069 15.5258 563.486 15.1429 564 15.1429C564.514 15.1429 564.931 15.5258 564.931 15.9981V25.9372L569.268 21.9544C569.631 21.6205 570.221 21.6205 570.584 21.9544C570.948 22.2884 570.948 22.83 570.584 23.1639Z" fill="white"/>
<defs>
<linearGradient id="paint0_linear_20_1043" x1="32" y1="22" x2="188" y2="22" gradientUnits="userSpaceOnUse">
<stop stop-color="#79E9AF"/>
<stop offset="1" stop-color="white" stop-opacity="0"/>
</linearGradient>
</defs>
</svg>
